<?xml version="1.0" encoding="UTF-8" standalone="no"?>
<svg
   viewBox="0 0 530.55999 449.52267"
   height="449.52267"
   width="530.56"
   xml:space="preserve"
   id="svg2"
   version="1.1"
   sodipodi:docname="LogoCityzen.svg"
   inkscape:export-filename="LogoCityzen.svg"
   inkscape:export-xdpi="96"
   inkscape:export-ydpi="96"
   inkscape:version="1.2.2 (b0a84865, 2022-12-01)"
   xmlns:inkscape="http://www.inkscape.org/namespaces/inkscape"
   xmlns:sodipodi="http://sodipodi.sourceforge.net/DTD/sodipodi-0.dtd"
   xmlns="http://www.w3.org/2000/svg"
   xmlns:svg="http://www.w3.org/2000/svg"
   xmlns:rdf="http://www.w3.org/1999/02/22-rdf-syntax-ns#"
   xmlns:cc="http://creativecommons.org/ns#"
   xmlns:dc="http://purl.org/dc/elements/1.1/"><sodipodi:namedview
     id="namedview34"
     pagecolor="#ffffff"
     bordercolor="#000000"
     borderopacity="0.25"
     inkscape:showpageshadow="2"
     inkscape:pageopacity="0.0"
     inkscape:pagecheckerboard="0"
     inkscape:deskcolor="#d1d1d1"
     showgrid="false"
     inkscape:zoom="0.29734106"
     inkscape:cx="-420.39267"
     inkscape:cy="221.96733"
     inkscape:window-width="1309"
     inkscape:window-height="456"
     inkscape:window-x="175"
     inkscape:window-y="109"
     inkscape:window-maximized="0"
     inkscape:current-layer="svg2" /><metadata
     id="metadata8"><rdf:RDF><cc:Work
         rdf:about=""><dc:format>image/svg+xml</dc:format><dc:type
           rdf:resource="http://purl.org/dc/dcmitype/StillImage" /></cc:Work></rdf:RDF></metadata><defs
     id="defs6"><clipPath
       id="clipPath18"
       clipPathUnits="userSpaceOnUse"><path
         id="path16"
         d="M 0,595.276 H 841.89 V 0 H 0 Z" /></clipPath></defs><g
     transform="matrix(1.3333333,0,0,-1.3333333,-275.64973,620.39812)"
     id="g10"><g
       id="g12"><g
         clip-path="url(#clipPath18)"
         id="g14"><g
           transform="translate(273.7793,277.2307)"
           id="g20"><path
             id="path22"
             style="fill:#25a740;fill-opacity:1;fill-rule:nonzero;stroke:none"
             d="m 0,0 c -19.135,0 -35.088,6.432 -47.868,19.3 -12.786,12.862 -19.174,28.779 -19.174,47.74 0,18.959 6.388,34.874 19.174,47.742 12.78,12.863 28.733,19.3 47.868,19.3 12.354,0 23.615,-2.966 33.774,-8.889 10.157,-5.929 17.859,-13.883 23.108,-23.871 L 28.694,84.816 c -2.539,5.246 -6.392,9.395 -11.554,12.443 -5.166,3.049 -10.963,4.572 -17.394,4.572 -9.821,0 -17.946,-3.261 -24.38,-9.777 -6.435,-6.52 -9.649,-14.857 -9.649,-25.014 0,-9.99 3.214,-18.244 9.649,-24.76 6.434,-6.518 14.559,-9.775 24.38,-9.775 6.603,0 12.482,1.48 17.649,4.443 5.162,2.96 9.014,7.066 11.554,12.317 L 57.389,33.012 C 51.803,23.021 43.931,15.021 33.774,9.015 23.615,3.007 12.354,0 0,0" /></g><path
           id="path24"
           style="fill:#25a740;fill-opacity:1;fill-rule:nonzero;stroke:none"
           d="m 340.819,407.756 h 32.758 V 280.785 h -32.758 z" /><g
           transform="translate(468.5479,376.2673)"
           id="g26"><path
             id="path28"
             style="fill:#25a740;fill-opacity:1;fill-rule:nonzero;stroke:none"
             d="m 0,0 h -28.694 v -52.82 c 0,-4.404 1.099,-7.617 3.3,-9.648 2.199,-2.032 5.416,-3.175 9.651,-3.429 4.23,-0.254 9.479,-0.215 15.743,0.126 v -29.711 c -22.518,-2.54 -38.389,-0.42 -47.614,6.349 -9.229,6.769 -13.84,18.876 -13.84,36.313 V 0 h -22.091 v 31.489 h 22.091 v 25.648 l 32.76,9.903 V 31.489 H 0 Z" /></g><g
           transform="translate(262.6401,161.2648)"
           id="g30"><path
             id="path32"
             style="fill:#25a740;fill-opacity:1;fill-rule:nonzero;stroke:none"
             d="M 0,0 H 56.375 V -30.729 H -43.75 V -8.92 L 9.79,65.517 H -41.253 V 96.242 H 53.884 V 74.471 Z" /></g><g
           transform="translate(428.1807,188.6975)"
           id="g34"><path
             id="path36"
             style="fill:#25a740;fill-opacity:1;fill-rule:nonzero;stroke:none"
             d="m 0,0 c -0.617,-5.8 -2.856,-10.966 -6.715,-15.495 -3.863,-4.534 -8.897,-7.913 -15.112,-10.143 -9.243,-3.316 -17.991,-2.995 -26.248,0.967 -5.281,2.532 -9.55,6.193 -12.833,10.953 -10e-4,0 -0.008,-0.008 -0.008,-0.008 -22.866,51.75 31.523,59.155 31.523,59.155 -0.836,-28.428 -31.133,-58.765 -31.505,-59.137 57.815,10.404 69.609,72.141 69.609,72.141 -8.315,7.629 -18.251,12.513 -29.813,14.664 -11.563,2.143 -23.164,1.132 -34.792,-3.041 -18.01,-6.462 -30.852,-17.91 -38.537,-34.332 -7.688,-16.431 -8.325,-33.569 -1.922,-51.413 6.403,-17.847 17.791,-30.671 34.17,-38.459 16.375,-7.796 33.564,-8.461 51.574,-1.999 11.628,4.172 21.212,10.806 28.745,19.891 7.531,9.085 12.239,19.274 14.122,30.564 z" /></g><g
           transform="translate(569.6143,407.7561)"
           id="g38"><path
             id="path40"
             style="fill:#25a740;fill-opacity:1;fill-rule:nonzero;stroke:none"
             d="M 0,0 -28.089,-85.339 -61.199,0 h -35.806 l 52.057,-122.908 c -3.046,-8.634 -7.153,-14.894 -12.315,-18.791 -5.167,-3.892 -12.149,-5.754 -20.951,-5.586 v -0.017 h -12.944 v -4.606 -25.694 l 15.548,-0.275 0.003,0.072 c 15.067,-0.331 27.788,3.336 38.098,11.104 10.904,8.223 19.657,21.395 26.261,39.523 L 35.043,0 Z" /></g><g
           transform="translate(510.043,218.7043)"
           id="g42"><path
             id="path44"
             style="fill:#25a740;fill-opacity:1;fill-rule:nonzero;stroke:none"
             d="m 0,0 c -11.916,-2.353 -22.888,-1.656 -31.588,1.405 v -89.573 h 32.76 v 68.565 c 0,9.045 1.896,16.132 5.67,21.282 C 4.604,1.026 2.322,0.458 0,0" /></g><g
           transform="translate(583.46,247.0959)"
           id="g46"><path
             id="path48"
             style="fill:#25a740;fill-opacity:1;fill-rule:nonzero;stroke:none"
             d="m 0,0 c -6.505,6.686 -14.277,10.932 -23.271,12.816 -1.585,-10.723 -9.697,-21.363 -21.458,-29.338 0.141,10e-4 0.273,0.016 0.416,0.016 7.62,0 13.713,-2.246 18.285,-6.728 4.571,-4.49 6.857,-10.964 6.857,-19.428 V -116.56 H 13.586 V -38.6 C 13.586,-22.181 9.054,-9.313 0,0" /></g><g
           transform="translate(318.833,465.2986)"
           id="g50"><path
             id="path52"
             style="fill:#006942;fill-opacity:1;fill-rule:nonzero;stroke:none"
             d="M 0,0 C 38.399,0 54.391,-10.239 53.839,-30.25 V -48.402 H 28.094 c -26.423,0 -47.843,18.92 -47.843,42.258 V 0 Z" /></g></g></g></g></svg>
