<?xml version="1.0" encoding="UTF-8" standalone="no"?> <svg xmlns="http://www.w3.org/2000/svg" viewBox="0 0 48 48"><defs><style>.cls-1{fill:#7b8c8c;}.cls-2{fill:#8fa5a5;}.cls-3{fill:#fac100;}.cls-4{fill:#ff9500;}.cls-5{fill:#f87600;}.cls-6{fill:#e64600;}</style></defs><title>Idea</title><g id="_21_-_30" data-name="21 - 30"><g id="Innovative"><path class="cls-1" d="M28,39H20a1,1,0,0,0-1,1v4a3,3,0,0,0,3,3h4a3,3,0,0,0,3-3V40A1,1,0,0,0,28,39Z"/><path class="cls-2" d="M30,33H18a1,1,0,0,0-1,1v7a2,2,0,0,0,2,2H29a2,2,0,0,0,2-2V34A1,1,0,0,0,30,33Z"/><path class="cls-3" d="M24,7A14.015,14.015,0,0,0,10,21a14.24,14.24,0,0,0,4.239,10.537A8.79,8.79,0,0,1,17,37.85H31a8.79,8.79,0,0,1,2.761-6.313A14.24,14.24,0,0,0,38,21,14.015,14.015,0,0,0,24,7Z"/><path class="cls-4" d="M28.5,33A14.5,14.5,0,0,1,18.241,8.254,14.008,14.008,0,0,0,10,21a14.24,14.24,0,0,0,4.239,10.537A8.79,8.79,0,0,1,17,37.85H31a8.665,8.665,0,0,1,2.108-5.61A14.455,14.455,0,0,1,28.5,33Z"/><path class="cls-5" d="M28,24a3,3,0,0,0-3,3v1H23V27a3,3,0,1,0-3,3h1v7.85h2V30h2v7.85h2V30h1a3,3,0,0,0,0-6Zm-7,4H20a1,1,0,1,1,1-1Zm7,0H27V27a1,1,0,1,1,1,1Z"/><path class="cls-6" d="M21,30.892V37.85h2V31.913A14.251,14.251,0,0,1,21,30.892Z"/><path class="cls-6" d="M19.645,29.964a14.578,14.578,0,0,1-2.609-2.609A2.984,2.984,0,0,0,19.645,29.964Z"/><path class="cls-6" d="M25,32.557V37.85h2V32.922A14.332,14.332,0,0,1,25,32.557Z"/><path class="cls-3" d="M24,5a1,1,0,0,1-1-1V2a1,1,0,0,1,2,0V4A1,1,0,0,1,24,5Z"/><path class="cls-3" d="M24,5a1,1,0,0,1-1-1V2a1,1,0,0,1,2,0V4A1,1,0,0,1,24,5Z"/><path class="cls-3" d="M43,22H41a1,1,0,0,1,0-2h2a1,1,0,0,1,0,2Z"/><path class="cls-3" d="M7,22H5a1,1,0,0,1,0-2H7a1,1,0,0,1,0,2Z"/><path class="cls-3" d="M11.979,9.979a1,1,0,0,1-.707-.293L9.858,8.272a1,1,0,0,1,1.414-1.414l1.414,1.414a1,1,0,0,1-.707,1.707Z"/><path class="cls-3" d="M11.979,9.979a1,1,0,0,1-.707-.293L9.858,8.272a1,1,0,0,1,1.414-1.414l1.414,1.414a1,1,0,0,1-.707,1.707Z"/><path class="cls-3" d="M37.435,35.435a1,1,0,0,1-.707-.293l-1.414-1.414a1,1,0,1,1,1.414-1.415l1.414,1.415a1,1,0,0,1-.707,1.707Z"/><path class="cls-3" d="M36.021,9.979a1,1,0,0,1-.707-1.707l1.414-1.414a1,1,0,1,1,1.414,1.414L36.728,9.686A1,1,0,0,1,36.021,9.979Z"/><path class="cls-3" d="M10.565,35.435a1,1,0,0,1-.707-1.707l1.414-1.415a1,1,0,1,1,1.414,1.415l-1.414,1.414A1,1,0,0,1,10.565,35.435Z"/></g></g></svg>