<?xml version="1.0" encoding="utf-8"?>
<!-- Generator: Adobe Illustrator 18.0.0, SVG Export Plug-In . SVG Version: 6.00 Build 0)  -->
<!DOCTYPE svg PUBLIC "-//W3C//DTD SVG 1.1//EN" "http://www.w3.org/Graphics/SVG/1.1/DTD/svg11.dtd">
<svg version="1.1" id="Layer_1" xmlns="http://www.w3.org/2000/svg" xmlns:xlink="http://www.w3.org/1999/xlink" x="0px" y="0px"
	 viewBox="0 0 200 200" enable-background="new 0 0 200 200" xml:space="preserve">
<g>
	<path fill="#FDE4DF" d="M155.9,66.7c0-1.7-1.4-3.1-3.1-3.1c-1.7,0-3.1,1.4-3.1,3.1c0,3.9,0,9.3,0,12.9c0,0,0.1,0,0.1,0h6V66.7z"/>
	<path fill="#FDE4DF" d="M171.7,132.7c-1.8,0-3.2-1.4-3.2-3.2c0-1.8,1.4-3.2,3.2-3.2c12.1,0,21.9-9.8,21.9-21.9V91.7
		c-1,0.3-2,0.5-3.1,0.5c-2.4,0-4.6-0.9-6.3-2.4c-1.7,1.5-3.9,2.4-6.3,2.4c-1,0-2-0.2-2.9-0.5c-1.2,3.9-4.8,6.7-9.1,6.7h-6.6l0,4.6
		l11.8,5.1c1.6,0.7,2.4,2.6,1.7,4.2c-0.5,1.2-1.7,1.9-2.9,1.9c-0.4,0-0.8-0.1-1.3-0.3l-13.8-5.9c-1.2-0.5-1.9-1.7-1.9-2.9l0-9.9
		c0-0.8,0.3-1.7,0.9-2.3c0.6-0.6,1.4-0.9,2.3-0.9h9.8c1.7,0,3.1-1.4,3.1-3.1S167.7,86,166,86h-16.1c-0.6,0-1.1,0.2-1.6,0.4
		c0,0-0.1,0-0.1,0.1c-0.9,0.6-1.4,1.5-1.4,2.6v14.7c0,8.3,4.5,16.1,11.7,20.3c1,0.6,1.6,1.6,1.6,2.8l0,69.5h23.2v-66
		C179.7,131.8,175.8,132.7,171.7,132.7z"/>
	<path fill="#FDE4DF" d="M168.5,66.7c0-1.7-1.4-3.1-3.1-3.1c-1.7,0-3.1,1.4-3.1,3.1v12.9h3.7c0.9,0,1.7,0.1,2.5,0.3V66.7z"/>
	<path fill="#FDE4DF" d="M181.1,72.6v-5.9c0-1.7-1.4-3.1-3.1-3.1c-1.7,0-3.1,1.4-3.1,3.1v16.1c0,1.7,1.4,3.1,3.1,3.1
		c1.7,0,3.1-1.4,3.1-3.1C181.1,82.8,181.1,72.6,181.1,72.6z"/>
	<path fill="#FDE4DF" d="M190.5,69.5c-1.7,0-3.1,1.4-3.1,3.1v10.2c0,1.7,1.4,3.1,3.1,3.1s3.1-1.4,3.1-3.1V72.6
		C193.6,70.9,192.2,69.5,190.5,69.5z"/>
	<path fill="#422938" d="M190.5,63.1c-1.2,0-2.4,0.2-3.5,0.7c-1.2-3.8-4.8-6.6-9-6.6c-2.4,0-4.6,0.9-6.3,2.4
		c-1.7-1.5-3.9-2.4-6.3-2.4c-2.4,0-4.6,0.9-6.3,2.4c-1.7-1.5-3.9-2.4-6.3-2.4c-5.2,0-9.4,4.2-9.4,9.5c0,9.1,0,13.4,0,15.5
		c-1.9,1.8-3,4.2-3,6.9v14.7c0,10,5.1,19.3,13.3,24.8l0,67.7c0,1.8,1.4,3.2,3.2,3.2c1.8,0,3.2-1.4,3.2-3.2l0-69.5
		c0-1.1-0.6-2.2-1.6-2.8c-7.2-4.2-11.7-11.9-11.7-20.3V89.1c0-1.1,0.5-2,1.4-2.6c0,0,0.1,0,0.1-0.1c0.5-0.3,1-0.4,1.6-0.4H166
		c1.7,0,3.1,1.4,3.1,3.1s-1.4,3.1-3.1,3.1h-9.8c-0.8,0-1.7,0.3-2.3,0.9c-0.6,0.6-0.9,1.4-0.9,2.3l0,9.9c0,1.3,0.8,2.4,1.9,2.9
		l13.8,5.9c0.4,0.2,0.8,0.3,1.3,0.3c1.2,0,2.4-0.7,2.9-1.9c0.7-1.6-0.1-3.5-1.7-4.2l-11.8-5.1l0-4.6h6.6c4.3,0,7.9-2.8,9.1-6.7
		c0.9,0.3,1.9,0.5,2.9,0.5c2.4,0,4.6-0.9,6.3-2.4c1.7,1.5,3.9,2.4,6.3,2.4c1.1,0,2.1-0.2,3.1-0.5v12.7c0,12.1-9.8,21.9-21.9,21.9
		c-1.8,0-3.2,1.4-3.2,3.2c0,1.8,1.4,3.2,3.2,3.2c4.1,0,8-0.9,11.6-2.5v66c0,1.8,1.4,3.2,3.2,3.2c1.8,0,3.2-1.4,3.2-3.2v-70
		c6.3-5.2,10.3-13.1,10.3-21.9V72.6C200,67.4,195.8,63.1,190.5,63.1z M149.8,79.6c0-3.6,0-9,0-12.9c0-1.7,1.4-3.1,3.1-3.1
		c1.7,0,3.1,1.4,3.1,3.1v12.9h-6C149.9,79.6,149.8,79.6,149.8,79.6z M166,79.6h-3.7V66.7c0-1.7,1.4-3.1,3.1-3.1
		c1.7,0,3.1,1.4,3.1,3.1v13.2C167.7,79.7,166.9,79.6,166,79.6z M178,85.9c-1.7,0-3.1-1.4-3.1-3.1V66.7c0-1.7,1.4-3.1,3.1-3.1
		c1.7,0,3.1,1.4,3.1,3.1v5.9c0,0,0,10.2,0,10.2C181.1,84.5,179.7,85.9,178,85.9z M190.5,85.9c-1.7,0-3.1-1.4-3.1-3.1V72.6
		c0-1.7,1.4-3.1,3.1-3.1c1.7,0,3.1,1.4,3.1,3.1v10.2C193.6,84.5,192.2,85.9,190.5,85.9z"/>
	<path fill="#BB8C82" d="M43.6,77.8c0-2-1.6-3.5-3.5-3.5c-2,0-3.5,1.6-3.5,3.5V95c0,2,1.6,3.5,3.5,3.5c2,0,3.5-1.6,3.5-3.5V77.8z"/>
	<path fill="#BB8C82" d="M33.3,148.3c-1.8,0-3.2-1.4-3.2-3.2c0-1.8,1.4-3.2,3.2-3.2c13.1,0,23.7-10.6,23.7-23.7v-13.9
		c-1.1,0.4-2.3,0.7-3.5,0.7c-2.6,0-5-1-6.7-2.6C45,104,42.6,105,40,105c-1.1,0-2.3-0.2-3.3-0.6c-1.2,4.2-5,7.3-9.6,7.3h-7.3l0,5.3
		l12.8,5.5c1.6,0.7,2.4,2.6,1.7,4.2c-0.5,1.2-1.7,1.9-2.9,1.9c-0.4,0-0.8-0.1-1.3-0.3L15.4,122c-1.2-0.5-1.9-1.7-1.9-2.9l0-10.6
		c0-0.8,0.3-1.7,0.9-2.3c0.6-0.6,1.4-0.9,2.3-0.9h10.5c2,0,3.5-1.6,3.5-3.5c0-2-1.6-3.5-3.5-3.5H9.9c-0.6,0-1.3,0.2-1.8,0.5
		c0,0-0.1,0-0.1,0.1c-1,0.6-1.6,1.7-1.6,3v15.8c0,9,4.9,17.4,12.7,21.9c1,0.6,1.6,1.6,1.6,2.8l0,54.6h25.3v-51.3
		C42.1,147.3,37.8,148.3,33.3,148.3z"/>
	<path fill="#BB8C82" d="M16.6,77.8c0-2-1.6-3.5-3.5-3.5c-1.9,0-3.5,1.6-3.5,3.5c0,4.4,0,10.2,0,14.1c0.1,0,0.2,0,0.4,0h6.7V77.8z"
		/>
	<path fill="#BB8C82" d="M30.1,77.8c0-2-1.6-3.5-3.5-3.5c-2,0-3.5,1.6-3.5,3.5c0,0,0,14.1,0,14.1h4.2c1,0,2,0.2,2.9,0.4V77.8z"/>
	<path fill="#BB8C82" d="M53.5,80.6c-2,0-3.5,1.6-3.5,3.5V95c0,2,1.6,3.5,3.5,3.5c2,0,3.5-1.6,3.5-3.5V84.1
		C57,82.2,55.4,80.6,53.5,80.6z"/>
	<path fill="#422938" d="M53.5,74.2c-1.4,0-2.7,0.3-3.9,0.8c-1.2-4.1-5-7.1-9.5-7.1c-2.6,0-5,1-6.7,2.6c-1.8-1.6-4.1-2.6-6.7-2.6
		c-2.6,0-5,1-6.7,2.6c-1.8-1.6-4.1-2.6-6.7-2.6c-5.4,0-9.9,4.5-9.9,9.9c0,9.9,0,14.5,0,16.7c-2,1.9-3.2,4.5-3.2,7.3v15.8
		c0,10.7,5.4,20.6,14.3,26.5l0,52.8c0,1.8,1.4,3.2,3.2,3.2c1.8,0,3.2-1.4,3.2-3.2l0-54.6c0-1.1-0.6-2.2-1.6-2.8
		c-7.8-4.5-12.7-12.9-12.7-21.9v-15.8c0-1.2,0.6-2.3,1.6-3c0,0,0.1,0,0.1-0.1c0.5-0.3,1.2-0.5,1.8-0.5h17.2c2,0,3.5,1.6,3.5,3.5
		c0,2-1.6,3.5-3.5,3.5H16.7c-0.8,0-1.7,0.3-2.3,0.9c-0.6,0.6-0.9,1.4-0.9,2.3l0,10.6c0,1.3,0.8,2.4,1.9,2.9l14.7,6.3
		c0.4,0.2,0.8,0.3,1.3,0.3c1.2,0,2.4-0.7,2.9-1.9c0.7-1.6-0.1-3.5-1.7-4.2L19.8,117l0-5.3h7.3c4.6,0,8.4-3.1,9.6-7.3
		c1,0.4,2.1,0.6,3.3,0.6c2.6,0,5-1,6.7-2.6c1.8,1.6,4.1,2.6,6.7,2.6c1.2,0,2.4-0.2,3.5-0.7v13.9c0,13.1-10.6,23.7-23.7,23.7
		c-1.8,0-3.2,1.4-3.2,3.2c0,1.8,1.4,3.2,3.2,3.2c4.5,0,8.8-1,12.6-2.8v51.3c0,1.8,1.4,3.2,3.2,3.2c1.8,0,3.2-1.4,3.2-3.2v-55.3
		c6.8-5.5,11.1-13.9,11.1-23.3V84.1C63.4,78.7,59,74.2,53.5,74.2z M9.6,91.9c0-3.9,0-9.7,0-14.1c0-2,1.6-3.5,3.5-3.5
		c2,0,3.5,1.6,3.5,3.5c0,0,0,14.1,0,14.1H9.9C9.8,91.8,9.7,91.9,9.6,91.9z M27.2,91.8H23V77.8c0-2,1.6-3.5,3.5-3.5
		c2,0,3.5,1.6,3.5,3.5v14.5C29.2,92,28.2,91.8,27.2,91.8z M40,98.6c-2,0-3.5-1.6-3.5-3.5V77.8c0-2,1.6-3.5,3.5-3.5
		c2,0,3.5,1.6,3.5,3.5V95C43.6,97,42,98.6,40,98.6z M53.5,98.6c-2,0-3.5-1.6-3.5-3.5V84.1c0-2,1.6-3.5,3.5-3.5c2,0,3.5,1.6,3.5,3.5
		V95C57,97,55.4,98.6,53.5,98.6z"/>
	<path fill="#F7BAAD" d="M126,13.9c-2.7,0-4.8,2.2-4.8,4.8v13c0,2.7,2.2,4.8,4.8,4.8c2.7,0,4.8-2.2,4.8-4.8v-13
		C130.8,16.1,128.7,13.9,126,13.9z"/>
	<path fill="#F7BAAD" d="M114.8,18.8v-7.6c0-2.7-2.2-4.8-4.8-4.8c-2.7,0-4.8,2.2-4.8,4.8v20.6c0,2.7,2.2,4.8,4.8,4.8
		s4.8-2.2,4.8-4.8C114.8,31.8,114.8,18.8,114.8,18.8z"/>
	<path fill="#F7BAAD" d="M98.7,11.2c0-2.7-2.2-4.8-4.8-4.8S89,8.6,89,11.2v17.4h5.6c1.4,0,2.8,0.3,4.1,0.8V11.2z"/>
	<path fill="#F7BAAD" d="M82.6,11.2c0-2.7-2.2-4.8-4.8-4.8c-2.6,0-4.8,2.2-4.8,4.8c0,5.5,0,12.9,0,17.5c0.3,0,0.7-0.1,1-0.1h8.6
		V11.2z"/>
	<path fill="#F7BAAD" d="M101.9,94.8c-1.8,0-3.2-1.4-3.2-3.2c0-1.8,1.4-3.2,3.2-3.2c16,0,28.9-13,28.9-28.9V42
		c-1.5,0.7-3.1,1.1-4.8,1.1c-3.1,0-6-1.3-8-3.4c-2,2.1-4.9,3.4-8,3.4c-1.5,0-3-0.3-4.3-0.9c-1.1,5.1-5.6,8.9-11,8.9h-9.4l0,7.4
		l15.7,6.7c1.6,0.7,2.4,2.6,1.7,4.2c-0.5,1.2-1.7,1.9-2.9,1.9c-0.4,0-0.8-0.1-1.3-0.3l-17.6-7.6c-1.2-0.5-1.9-1.7-1.9-2.9l0-12.7
		c0-0.8,0.3-1.7,0.9-2.3c0.6-0.6,1.4-0.9,2.3-0.9h12.6c2.7,0,4.8-2.2,4.8-4.8c0-2.7-2.2-4.8-4.8-4.8H74c-0.9,0-1.8,0.2-2.5,0.7
		c0,0-0.1,0-0.1,0.1c-1.4,0.9-2.2,2.4-2.2,4.1v18.8c0,11,5.9,21.2,15.4,26.7c1,0.6,1.6,1.6,1.6,2.8l0,108.6h31.4V91.2
		C112.9,93.5,107.6,94.8,101.9,94.8z"/>
	<path fill="#422938" d="M137.2,31.8v-13c0-6.2-5-11.2-11.2-11.2c-1.8,0-3.6,0.4-5.1,1.2c-1.1-5-5.6-8.8-11-8.8c-3.1,0-6,1.3-8,3.4
		c-2-2.1-4.9-3.4-8-3.4c-3.1,0-6,1.3-8,3.4c-2-2.1-4.9-3.4-8-3.4c-6.2,0-11.2,5-11.2,11.2c0,12.4,0,17.8,0,20.2
		c-2.4,2.1-3.8,5.2-3.8,8.5v18.8c0,12.6,6.5,24.4,17,31.3l0,106.9c0,1.8,1.4,3.2,3.2,3.2c1.8,0,3.2-1.4,3.2-3.2l0-108.6
		c0-1.1-0.6-2.2-1.6-2.8c-9.5-5.5-15.4-15.7-15.4-26.7V39.9c0-1.7,0.8-3.2,2.2-4.1c0,0,0.1,0,0.1-0.1c0.8-0.5,1.6-0.7,2.5-0.7h20.6
		c2.7,0,4.8,2.2,4.8,4.8c0,2.7-2.2,4.8-4.8,4.8H82c-0.8,0-1.7,0.3-2.3,0.9c-0.6,0.6-0.9,1.4-0.9,2.3l0,12.7c0,1.3,0.8,2.4,1.9,2.9
		l17.6,7.6c0.4,0.2,0.8,0.3,1.3,0.3c1.2,0,2.4-0.7,2.9-1.9c0.7-1.6-0.1-3.5-1.7-4.2l-15.7-6.7l0-7.4h9.4c5.4,0,9.9-3.8,11-8.9
		c1.3,0.6,2.8,0.9,4.3,0.9c3.1,0,6-1.3,8-3.4c2,2.1,4.9,3.4,8,3.4c1.7,0,3.4-0.4,4.8-1.1v17.6c0,16-13,28.9-28.9,28.9
		c-1.8,0-3.2,1.4-3.2,3.2c0,1.8,1.4,3.2,3.2,3.2c5.6,0,11-1.3,15.7-3.7v105.7c0,1.8,1.4,3.2,3.2,3.2s3.2-1.4,3.2-3.2V87.1
		c8.1-6.5,13.2-16.4,13.2-27.5C137.2,59.5,137.2,31.8,137.2,31.8z M73,28.7c0-4.6,0-12,0-17.5c0-2.7,2.2-4.8,4.8-4.8
		c2.7,0,4.8,2.2,4.8,4.8v17.4H74C73.6,28.6,73.3,28.7,73,28.7z M94.6,28.6H89V11.2c0-2.7,2.2-4.8,4.8-4.8s4.8,2.2,4.8,4.8v18.2
		C97.4,28.9,96,28.6,94.6,28.6z M109.9,36.7c-2.7,0-4.8-2.2-4.8-4.8V11.2c0-2.7,2.2-4.8,4.8-4.8c2.7,0,4.8,2.2,4.8,4.8v7.6
		c0,0,0,13,0,13C114.8,34.5,112.6,36.7,109.9,36.7z M126,36.7c-2.7,0-4.8-2.2-4.8-4.8v-13c0-2.7,2.2-4.8,4.8-4.8
		c2.7,0,4.8,2.2,4.8,4.8v13C130.8,34.5,128.7,36.7,126,36.7z"/>
</g>
</svg>
