<?xml version="1.0" encoding="iso-8859-1"?>
<!-- Generator: Adobe Illustrator 19.0.0, SVG Export Plug-In . SVG Version: 6.00 Build 0)  -->
<svg version="1.1" id="Capa_1" xmlns="http://www.w3.org/2000/svg" xmlns:xlink="http://www.w3.org/1999/xlink" x="0px" y="0px"
	 viewBox="0 0 416 416" style="enable-background:new 0 0 416 416;" xml:space="preserve">
<path style="fill:#F8DFD2;" d="M327.984,376.009H248v-81.552c0.096-12.896,5.616-25.216,15.152-33.888l80.992-75.44
	c3.664-3.664,9.104-5.44,14.528-5.024c4.064,0.368,7.76,1.984,10.704,4.688c-1.552-1.44-3.296-2.544-5.2-3.344l-5.488-2.304
	l10.704-105.744c0.992-9.92,9.28-17.392,19.248-17.392c10.672,0,19.344,8.672,19.344,19.344v159.488
	c0,8.496-3.296,16.496-9.264,22.528l-60.528,61.088c-6.544,6.224-10.208,14.672-10.208,23.376V376.009z"/>
<path style="fill:#D84234;" d="M122.56,127.257c-20.512-20.512-20.112-53.888,1.136-73.872c9.168-8.624,21.344-13.376,34.336-13.376
	c23.92,0,34.592,11.728,49.968,27.152c15.392-15.408,26.032-27.152,49.968-27.152c12.992,0,25.168,4.752,34.336,13.376
	c21.216,19.952,21.696,53.328,1.136,73.872L208,212.697L122.56,127.257z"/>
<path style="fill:#030303;" d="M158.032,48.009c22.912,0,33.216,13.696,49.968,30.448c16.304-16.304,26.8-30.448,49.968-30.448
	c10.944,0,21.184,3.968,28.848,11.184c17.904,16.864,18.32,45.04,0.96,62.4L208,201.385l-79.776-79.776
	c-17.312-17.328-16.976-45.504,0.976-62.4C136.848,51.977,147.088,48.009,158.032,48.009 M118.224,47.545
	c-24.528,23.088-24.96,61.712-1.312,85.36L208,224.009l91.088-91.088c23.648-23.648,23.216-62.272-1.312-85.36
	C276.72,27.721,240.64,23.193,208,55.833C175.408,23.225,139.28,27.721,118.224,47.545z"/>
<path style="fill:#010101;" d="M336,384.009h-96v-89.616c0.112-15.104,6.56-29.552,17.68-39.68l80.816-75.232
	c3.472-3.472,7.952-5.84,12.832-6.88l10.128-100.016c1.408-14.016,13.104-24.576,27.2-24.576c15.072,0,27.344,12.272,27.344,27.344
	v159.488c0,10.608-4.112,20.608-11.584,28.16l-60.72,61.28c-4.96,4.704-7.696,11.04-7.696,17.552V384.009z M256,368.009h64v-26.176
	c0-10.912,4.56-21.472,12.512-28.992l60.528-61.088c4.496-4.544,6.96-10.544,6.96-16.912V75.353c0-6.256-5.088-11.344-11.344-11.344
	c-5.84,0-10.704,4.384-11.296,10.208l-10.096,99.84c3.104,1.296,5.936,3.184,8.368,5.648c4.992,4.976,7.728,11.6,7.728,18.656
	s-2.752,13.68-7.744,18.672l-62.704,56.88l-10.752-11.84l62.416-56.608c1.68-1.696,2.784-4.32,2.784-7.088s-1.088-5.392-3.056-7.36
	c-2.144-2.144-4.656-2.768-6.4-2.928c-3.152-0.32-6.128,0.752-8.304,2.928l-81.072,75.504c-7.92,7.2-12.448,17.36-12.528,27.968
	V368.009z"/>
<path style="fill:#F8DFD2;" d="M87.984,341.833c0-8.704-3.648-17.152-10.192-23.376l-60.528-61.088
	C11.296,251.337,8,243.337,8,234.841V75.353c0-10.672,8.672-19.344,19.344-19.344c9.968,0,18.256,7.472,19.248,17.392
	l10.704,105.744l-5.488,2.304c-1.904,0.8-3.664,1.904-5.2,3.344c2.944-2.704,6.64-4.32,10.704-4.688
	c5.424-0.4,10.88,1.376,14.528,5.024l80.992,75.44c9.552,8.672,15.056,20.992,15.152,33.888v81.552h-80L87.984,341.833
	L87.984,341.833z"/>
<path style="fill:#010101;" d="M80,341.833c0-6.512-2.736-12.864-7.696-17.568l-60.72-61.28C4.112,255.449,0,245.449,0,234.841
	V75.353c0-15.072,12.272-27.344,27.344-27.344c14.096,0,25.792,10.56,27.2,24.576l10.128,100.016c4.88,1.024,9.36,3.408,12.832,6.88
	l80.816,75.232c11.12,10.144,17.584,24.576,17.68,39.68v89.616H80V341.833z M160,294.457c-0.08-10.608-4.608-20.768-12.528-27.968
	L66.4,190.985c-2.176-2.176-5.136-3.232-8.304-2.928c-1.744,0.16-4.272,0.784-6.4,2.928c-1.968,1.968-3.056,4.576-3.056,7.36
	s1.088,5.392,2.784,7.088l62.416,56.608l-10.752,11.84l-62.704-56.88c-4.992-4.992-7.744-11.616-7.744-18.672
	s2.752-13.68,7.728-18.656c2.432-2.448,5.264-4.336,8.368-5.648L38.64,74.185c-0.592-5.792-5.456-10.176-11.296-10.176
	C21.088,64.009,16,69.097,16,75.353v159.488c0,6.368,2.464,12.368,6.96,16.912l60.528,61.088C91.44,320.361,96,330.937,96,341.833
	v26.176h64V294.457z"/>
<g>
</g>
<g>
</g>
<g>
</g>
<g>
</g>
<g>
</g>
<g>
</g>
<g>
</g>
<g>
</g>
<g>
</g>
<g>
</g>
<g>
</g>
<g>
</g>
<g>
</g>
<g>
</g>
<g>
</g>
</svg>
