<?xml version="1.0" encoding="UTF-8" standalone="no"?>
<svg
   viewBox="0 0 536.50158 463.29751"
   height="463.29752"
   width="536.50159"
   xml:space="preserve"
   id="svg2"
   version="1.1"
   sodipodi:docname="LogoZoneVerte.svg"
   inkscape:export-filename="LogoZoneVerte.svg"
   inkscape:export-xdpi="96"
   inkscape:export-ydpi="96"
   inkscape:version="1.2.2 (b0a84865, 2022-12-01)"
   xmlns:inkscape="http://www.inkscape.org/namespaces/inkscape"
   xmlns:sodipodi="http://sodipodi.sourceforge.net/DTD/sodipodi-0.dtd"
   xmlns="http://www.w3.org/2000/svg"
   xmlns:svg="http://www.w3.org/2000/svg"
   xmlns:rdf="http://www.w3.org/1999/02/22-rdf-syntax-ns#"
   xmlns:cc="http://creativecommons.org/ns#"
   xmlns:dc="http://purl.org/dc/elements/1.1/"><sodipodi:namedview
     id="namedview323"
     pagecolor="#ffffff"
     bordercolor="#000000"
     borderopacity="0.25"
     inkscape:showpageshadow="2"
     inkscape:pageopacity="0.0"
     inkscape:pagecheckerboard="0"
     inkscape:deskcolor="#d1d1d1"
     showgrid="false"
     inkscape:zoom="0.29734106"
     inkscape:cx="-393.48754"
     inkscape:cy="201.78848"
     inkscape:window-width="1309"
     inkscape:window-height="456"
     inkscape:window-x="90"
     inkscape:window-y="134"
     inkscape:window-maximized="0"
     inkscape:current-layer="svg2" /><metadata
     id="metadata8"><rdf:RDF><cc:Work
         rdf:about=""><dc:format>image/svg+xml</dc:format><dc:type
           rdf:resource="http://purl.org/dc/dcmitype/StillImage" /></cc:Work></rdf:RDF></metadata><defs
     id="defs6"><clipPath
       id="clipPath18"
       clipPathUnits="userSpaceOnUse"><path
         id="path16"
         d="M 0,595.276 H 841.89 V 0 H 0 Z" /></clipPath></defs><g
     transform="matrix(1.3333333,0,0,-1.3333333,-251.8119,600.16685)"
     id="g10"><g
       id="g12"><g
         clip-path="url(#clipPath18)"
         id="g14"><g
           transform="translate(339.5518,383.3122)"
           id="g20"><path
             id="path22"
             style="fill:#4cbc38;fill-opacity:1;fill-rule:nonzero;stroke:none"
             d="m 0,0 c 3.915,0 7.002,-0.458 9.266,-1.368 2.261,-0.912 3.805,-2.199 4.633,-3.863 0.826,-1.665 0.955,-3.707 0.391,-6.124 -0.567,-2.418 -1.719,-5.094 -3.458,-8.025 -5.048,-7.293 -9.745,-14.149 -14.095,-20.568 -1.827,-2.776 -3.698,-5.55 -5.611,-8.323 -1.915,-2.775 -3.742,-5.41 -5.481,-7.906 -1.742,-2.497 -3.328,-4.777 -4.764,-6.837 -1.435,-2.062 -2.589,-3.685 -3.458,-4.874 -2.61,-3.727 -4.547,-6.64 -5.807,-8.739 -1.263,-2.102 -1.762,-3.667 -1.501,-4.697 0.261,-1.031 1.304,-1.684 3.132,-1.962 1.827,-0.278 4.479,-0.416 7.96,-0.416 4.001,0 7.504,0.078 10.506,0.238 3.002,0.158 5.785,0.435 8.352,0.833 2.566,0.395 5.045,0.93 7.439,1.605 2.392,0.672 4.979,1.525 7.765,2.556 0.607,-1.507 0.848,-3.031 0.718,-4.578 -0.131,-1.545 -0.783,-2.953 -1.958,-4.22 -1.175,-1.27 -2.959,-2.318 -5.35,-3.151 -2.394,-0.832 -5.462,-1.248 -9.201,-1.248 h -28.32 c -5.22,0 -8.897,0.693 -11.027,2.081 -2.133,1.385 -3.242,3.228 -3.328,5.528 -0.088,2.298 0.631,4.934 2.153,7.906 1.522,2.972 3.372,6.044 5.546,9.215 2.957,4.12 6.112,8.519 9.463,13.197 3.348,4.676 6.655,9.333 9.918,13.969 3.263,4.638 6.35,9.096 9.266,13.376 2.914,4.28 5.371,8.085 7.373,11.414 1.739,2.773 2.435,4.637 2.088,5.588 -0.349,0.951 -1.741,1.427 -4.176,1.427 -5.481,0 -10.16,-0.08 -14.029,-0.238 -3.872,-0.16 -7.288,-0.437 -10.245,-0.832 -2.958,-0.398 -5.634,-0.933 -8.026,-1.606 -2.393,-0.673 -4.893,-1.485 -7.504,-2.437 -0.609,1.505 -0.848,3.032 -0.717,4.578 0.13,1.545 0.782,2.952 1.957,4.221 1.174,1.267 2.937,2.298 5.286,3.091 2.348,0.792 5.393,1.189 9.135,1.189 z" /></g><g
           transform="translate(391.4912,299.6106)"
           id="g24"><path
             id="path26"
             style="fill:#4cbc38;fill-opacity:1;fill-rule:nonzero;stroke:none"
             d="m 0,0 c 2.435,0 4.806,0.574 7.113,1.725 2.304,1.147 4.327,3.01 6.069,5.587 1.739,2.575 3.131,5.886 4.175,9.928 1.045,4.042 1.566,8.917 1.566,14.624 0,5.784 -0.521,10.7 -1.566,14.742 -1.044,4.042 -2.436,7.331 -4.175,9.869 -1.742,2.536 -3.765,4.399 -6.069,5.588 -2.307,1.188 -4.678,1.783 -7.113,1.783 -2.436,0 -4.785,-0.595 -7.047,-1.783 -2.264,-1.189 -4.286,-3.052 -6.068,-5.588 -1.784,-2.538 -3.197,-5.827 -4.242,-9.869 -1.043,-4.042 -1.566,-8.958 -1.566,-14.742 0,-5.707 0.523,-10.582 1.566,-14.624 1.045,-4.042 2.458,-7.353 4.242,-9.928 1.782,-2.577 3.804,-4.44 6.068,-5.587 C -4.785,0.574 -2.436,0 0,0 m 0,71.812 c 4.001,0 7.873,-0.734 11.615,-2.199 3.739,-1.468 7.002,-3.787 9.788,-6.956 2.783,-3.171 5.024,-7.293 6.722,-12.365 1.695,-5.073 2.544,-11.176 2.544,-18.31 0,-7.213 -0.849,-13.336 -2.544,-18.369 C 26.427,8.579 24.186,4.458 21.403,1.249 18.617,-1.961 15.354,-4.3 11.615,-5.767 7.873,-7.233 4.001,-7.966 0,-7.966 c -4.09,0 -7.983,0.733 -11.68,2.199 -3.699,1.467 -6.939,3.806 -9.722,7.016 -2.785,3.209 -5.025,7.33 -6.721,12.364 -1.697,5.033 -2.545,11.156 -2.545,18.369 0,7.134 0.848,13.237 2.545,18.31 1.696,5.072 3.936,9.194 6.721,12.365 2.783,3.169 6.023,5.488 9.722,6.956 3.697,1.465 7.59,2.199 11.68,2.199" /></g><g
           transform="translate(470.3145,292.8342)"
           id="g28"><path
             id="path30"
             style="fill:#4cbc38;fill-opacity:1;fill-rule:nonzero;stroke:none"
             d="m 0,0 v 38.456 c 0,5.618 -0.502,10.464 -1.501,14.541 -1.001,4.073 -2.35,7.416 -4.045,10.027 -1.697,2.613 -3.742,4.531 -6.134,5.757 -2.393,1.226 -4.939,1.842 -7.634,1.842 -1.654,0 -3.155,-0.259 -4.502,-0.773 -1.351,-0.515 -2.48,-1.425 -3.394,-2.729 -0.913,-1.306 -1.632,-3.026 -2.153,-5.163 -0.522,-2.136 -0.783,-4.787 -0.783,-7.953 V 6.776 h -11.747 v 48.271 c 0,4.28 0.523,7.925 1.568,10.938 1.044,3.012 2.545,5.449 4.502,7.313 1.958,1.861 4.326,3.209 7.112,4.042 2.783,0.832 5.916,1.248 9.397,1.248 4.087,0 8.002,-0.873 11.745,-2.615 C -3.83,74.229 -0.522,71.651 2.35,68.245 5.22,64.836 7.504,60.674 9.2,55.76 10.897,50.845 11.746,45.218 11.746,38.878 V 0 Z" /></g><g
           transform="translate(501.5039,331.6975)"
           id="g32"><path
             id="path34"
             style="fill:#4cbc38;fill-opacity:1;fill-rule:nonzero;stroke:none"
             d="m 0,0 v -2.312 c 0,-0.75 0.044,-1.482 0.132,-2.191 4.457,0.078 8.521,0.631 12.191,1.658 3.67,1.026 6.773,2.488 9.307,4.385 2.535,1.895 4.458,4.187 5.768,6.873 1.309,2.687 1.92,5.808 1.835,9.363 -0.087,1.817 -0.393,3.574 -0.917,5.272 -0.527,1.699 -1.291,3.2 -2.295,4.504 -1.004,1.303 -2.206,2.331 -3.605,3.081 -1.397,0.751 -3.015,1.126 -4.85,1.126 -2.623,0 -5.003,-0.89 -7.143,-2.668 C 8.281,27.314 6.446,24.964 4.917,22.042 3.388,19.117 2.185,15.74 1.312,11.909 0.437,8.077 0,4.107 0,0 m 30.93,-40.053 c -5.657,0 -11.05,0.832 -16.182,2.497 -5.135,1.664 -9.658,4.161 -13.573,7.491 -3.915,3.329 -7.047,7.469 -9.397,12.424 -2.347,4.953 -3.522,10.76 -3.522,17.418 0,7.134 0.868,13.236 2.609,18.309 1.739,5.072 3.981,9.215 6.721,12.425 2.74,3.21 5.828,5.547 9.267,7.015 3.436,1.465 6.893,2.199 10.375,2.199 3.915,0 7.373,-0.576 10.375,-1.724 3.001,-1.15 5.524,-2.695 7.569,-4.637 2.042,-1.943 3.609,-4.181 4.697,-6.718 1.087,-2.537 1.674,-5.231 1.762,-8.084 0.174,-3.409 -0.479,-6.877 -1.957,-10.403 -1.481,-3.528 -3.785,-6.759 -6.917,-9.69 -2.088,-1.982 -4.371,-3.647 -6.852,-4.994 -2.479,-1.349 -5.068,-2.437 -7.764,-3.269 -2.699,-0.832 -5.461,-1.427 -8.287,-1.784 -2.829,-0.356 -5.547,-0.576 -8.157,-0.654 0.956,-3.589 2.35,-6.657 4.177,-9.21 1.827,-2.553 4.022,-4.605 6.59,-6.16 2.565,-1.555 5.416,-2.692 8.548,-3.409 3.133,-0.717 6.437,-1.076 9.918,-1.076 z" /></g><g
           transform="translate(313.0288,225.4631)"
           id="g36"><path
             id="path38"
             style="fill:#1c6520;fill-opacity:1;fill-rule:nonzero;stroke:none"
             d="m 0,0 v -2.913 c 0,-0.946 0.055,-1.868 0.165,-2.763 5.618,0.098 10.74,0.796 15.366,2.091 4.627,1.292 8.535,3.135 11.73,5.525 3.195,2.389 5.619,5.279 7.271,8.664 1.65,3.385 2.421,7.32 2.313,11.801 -0.11,2.289 -0.496,4.505 -1.156,6.645 -0.664,2.14 -1.627,4.032 -2.893,5.676 -1.267,1.643 -2.78,2.938 -4.543,3.884 -1.763,0.946 -3.801,1.419 -6.114,1.419 -3.306,0 -6.305,-1.122 -9.003,-3.362 C 10.438,34.426 8.125,31.464 6.197,27.78 4.269,24.095 2.753,19.838 1.652,15.011 0.551,10.181 0,5.177 0,0 m 38.984,-50.481 c -7.13,0 -13.928,1.048 -20.397,3.146 -6.472,2.098 -12.172,5.245 -17.107,9.44 -4.934,4.197 -8.882,9.416 -11.843,15.661 -2.96,6.242 -4.441,13.561 -4.441,21.953 0,8.991 1.095,16.682 3.291,23.077 2.192,6.392 5.016,11.613 8.47,15.659 3.455,4.046 7.346,6.991 11.679,8.842 4.33,1.848 8.689,2.772 13.076,2.772 4.935,0 9.294,-0.726 13.077,-2.173 3.783,-1.449 6.962,-3.398 9.54,-5.844 2.575,-2.449 4.549,-5.271 5.921,-8.467 1.37,-3.198 2.11,-6.594 2.221,-10.189 C 52.69,19.099 51.868,14.728 50.004,10.283 48.138,5.837 45.233,1.766 41.286,-1.93 38.654,-4.428 35.775,-6.526 32.65,-8.224 c -3.124,-1.7 -6.388,-3.072 -9.786,-4.121 -3.401,-1.049 -6.883,-1.798 -10.446,-2.247 -3.564,-0.45 -6.989,-0.726 -10.28,-0.825 1.206,-4.522 2.961,-8.392 5.265,-11.608 2.302,-3.217 5.07,-5.804 8.306,-7.764 3.233,-1.96 6.826,-3.394 10.774,-4.297 3.947,-0.904 8.113,-1.355 12.501,-1.355 z" /></g><g
           transform="translate(376.5181,237.6193)"
           id="g40"><path
             id="path42"
             style="fill:#1c6520;fill-opacity:1;fill-rule:nonzero;stroke:none"
             d="m 0,0 c 0,9.19 1.863,16.882 5.593,23.077 3.726,6.194 9.21,10.588 16.448,13.188 2.632,0.898 5.263,1.372 7.896,1.423 2.631,0.049 4.934,-0.401 6.907,-1.348 1.974,-0.951 3.481,-2.399 4.525,-4.346 1.04,-1.949 1.287,-4.473 0.74,-7.568 -4.17,0.799 -7.678,1.199 -10.528,1.199 -2.852,0 -5.21,-0.3 -7.072,-0.899 -3.512,-1 -5.979,-3.348 -7.403,-7.043 C 15.68,13.985 14.969,8.291 14.969,0.6 v -14.162 c 0,-5.045 -0.029,-10.215 -0.084,-15.509 -0.055,-5.296 -0.082,-10.665 -0.082,-16.11 V -61.14 H 0 Z" /></g><g
           transform="translate(422.7373,275.5324)"
           id="g44"><path
             id="path46"
             style="fill:#1c6520;fill-opacity:1;fill-rule:nonzero;stroke:none"
             d="M 0,0 H 12.336 V 17.302 H 27.14 V 0 H 52.306 V -10.04 H 27.14 l 0.164,-53.648 c 0,-8.391 0.877,-14.561 2.633,-18.506 1.752,-3.948 4.769,-6.271 9.045,-6.968 1.975,-0.3 4.195,-0.326 6.662,-0.075 2.466,0.248 5.345,0.922 8.635,2.022 0.438,-2.598 0.274,-4.82 -0.493,-6.668 -0.768,-1.849 -1.948,-3.297 -3.537,-4.346 -1.591,-1.048 -3.51,-1.723 -5.756,-2.022 -2.249,-0.3 -4.58,-0.202 -6.991,0.299 -3.947,0.599 -7.494,1.923 -10.637,3.972 -3.146,2.045 -5.799,4.668 -7.96,7.867 -2.164,3.195 -3.799,6.917 -4.906,11.164 -1.11,4.244 -1.663,8.864 -1.663,13.861 V -10.04 H 0 Z" /></g><g
           transform="translate(493.793,225.4631)"
           id="g48"><path
             id="path50"
             style="fill:#1c6520;fill-opacity:1;fill-rule:nonzero;stroke:none"
             d="m 0,0 v -2.913 c 0,-0.946 0.056,-1.868 0.166,-2.763 5.618,0.098 10.739,0.796 15.365,2.091 4.627,1.292 8.535,3.135 11.731,5.525 3.195,2.389 5.619,5.279 7.271,8.664 1.65,3.385 2.42,7.32 2.313,11.801 -0.111,2.289 -0.496,4.505 -1.157,6.645 -0.664,2.14 -1.626,4.032 -2.892,5.676 -1.267,1.643 -2.78,2.938 -4.543,3.884 -1.764,0.946 -3.802,1.419 -6.114,1.419 -3.306,0 -6.305,-1.122 -9.003,-3.362 C 10.438,34.426 8.125,31.464 6.198,27.78 4.27,24.095 2.754,19.838 1.653,15.011 0.552,10.181 0,5.177 0,0 m 38.984,-50.481 c -7.13,0 -13.927,1.048 -20.396,3.146 -6.472,2.098 -12.172,5.245 -17.108,9.44 -4.933,4.197 -8.881,9.416 -11.842,15.661 -2.96,6.242 -4.441,13.561 -4.441,21.953 0,8.991 1.095,16.682 3.29,23.077 2.193,6.392 5.017,11.613 8.471,15.659 3.454,4.046 7.346,6.991 11.678,8.842 4.331,1.848 8.689,2.772 13.077,2.772 4.934,0 9.294,-0.726 13.077,-2.173 3.782,-1.449 6.962,-3.398 9.54,-5.844 2.575,-2.449 4.549,-5.271 5.921,-8.467 1.37,-3.198 2.11,-6.594 2.221,-10.189 C 52.69,19.099 51.868,14.728 50.005,10.283 48.139,5.837 45.234,1.766 41.287,-1.93 c -2.633,-2.498 -5.511,-4.596 -8.636,-6.294 -3.125,-1.7 -6.388,-3.072 -9.786,-4.121 -3.401,-1.049 -6.883,-1.798 -10.446,-2.247 -3.564,-0.45 -6.99,-0.726 -10.28,-0.825 1.206,-4.522 2.961,-8.392 5.264,-11.608 2.303,-3.217 5.071,-5.804 8.306,-7.764 3.233,-1.96 6.826,-3.394 10.774,-4.297 3.948,-0.904 8.114,-1.355 12.501,-1.355 z" /></g><g
           transform="translate(321.2305,137.6711)"
           id="g52"><path
             id="path54"
             style="fill:#1c6520;fill-opacity:1;fill-rule:nonzero;stroke:none"
             d="m 0,0 c -34.886,21.065 -61.941,32.682 -70.574,89.813 -6.809,45.06 5.198,86.645 34.655,117.166 0,0 9.05,-39.757 -3.185,-71.023 C -72.252,51.244 -10.589,5.516 0,0" /></g><g
           transform="translate(524.4492,410.1316)"
           id="g56"><path
             id="path58"
             style="fill:#4cbc38;fill-opacity:1;fill-rule:nonzero;stroke:none"
             d="m 0,0 c 0,0 -47.93,-18.467 -86.221,-7.452 -38.29,11.016 -49.879,36.291 -119.761,16.403 0,0 96.685,75.477 205.982,-8.951" /></g><g
           transform="translate(323.2002,136.6086)"
           id="g60"><path
             id="path62"
             style="fill:#4cbc38;fill-opacity:1;fill-rule:nonzero;stroke:none"
             d="M 0,0 C 0,0 -160.193,35.354 -130.722,169.898 -130.722,169.898 -96.138,51.119 0,0" /></g><g
           transform="translate(421.5034,438.6159)"
           id="g64"><path
             id="path66"
             style="fill:#4cbc38;fill-opacity:1;fill-rule:nonzero;stroke:none"
             d="m 0,0 c -0.25,0.01 -0.341,0.012 -0.665,0.278 -1.122,0.781 -2.514,2.16 -2.955,3.898 -0.432,1.732 0.08,3.842 2.986,6.056 0.107,0.081 0.613,0.372 0.867,0.41 L 4.78,10.523 C 6.294,10.46 7.805,10.309 9.317,10.204 L 13.854,9.856 C 15.361,9.689 16.864,9.481 18.369,9.294 31.125,7.681 43.705,4.648 55.8,0.271 c 12.079,-4.427 23.646,-10.225 34.451,-17.19 21.67,-13.876 40.03,-32.759 53.605,-54.593 13.589,-21.844 22.066,-46.811 24.861,-72.369 2.8,-25.56 -0.225,-51.726 -8.699,-76.014 l -0.774,-2.284 -0.88,-2.245 -1.77,-4.487 c -0.556,-1.509 -1.285,-2.947 -1.927,-4.42 l -1.989,-4.394 c -1.476,-2.855 -2.88,-5.75 -4.441,-8.56 l -2.404,-4.18 -1.204,-2.089 -1.299,-2.03 c -6.843,-10.885 -14.878,-21.015 -23.911,-30.164 -9.046,-9.135 -19.156,-17.205 -29.985,-24.127 -10.846,-6.893 -22.418,-12.696 -34.55,-16.975 -24.231,-8.658 -50.37,-11.793 -75.946,-9.267 -0.801,0.067 -1.599,0.163 -2.397,0.26 l -1.748,0.208 -0.665,0.079 c -0.443,0.05 -0.885,0.108 -1.326,0.176 l -2.65,0.387 c -1.768,0.242 -3.521,0.59 -5.281,0.881 0,0 -1.014,0.259 -2.702,0.728 -1.691,0.447 -4.041,1.172 -6.716,2.046 -5.351,1.766 -11.915,4.452 -17.049,7.19 -4.408,2.188 -7.088,3.973 -8.532,5.193 -1.445,1.219 -1.648,1.909 -0.979,2.177 0.67,0.274 2.214,0.142 4.285,-0.27 2.088,-0.372 4.709,-1.009 7.571,-1.694 -0.543,0.295 6.214,-1.613 13.193,-2.994 3.498,-0.665 7.033,-1.27 9.706,-1.621 2.669,-0.379 4.467,-0.558 4.467,-0.558 1.621,-0.293 3.248,-0.556 4.881,-0.778 0.816,-0.112 1.628,-0.253 2.447,-0.34 l 4.153,-0.481 c 2.953,-0.293 5.912,-0.52 8.877,-0.663 23.732,-1.122 47.665,2.95 69.628,11.95 1.392,0.516 2.737,1.141 4.088,1.755 l 4.055,1.832 c 2.67,1.292 5.296,2.678 7.932,4.035 l 3.858,2.22 c 1.277,0.753 2.595,1.441 3.826,2.272 l 3.746,2.402 1.871,1.206 1.813,1.291 c 9.73,6.796 18.726,14.642 26.788,23.354 16.115,17.444 28.265,38.483 35.475,61.086 7.186,22.621 9.185,46.85 6.142,70.385 -1.529,11.767 -4.345,23.363 -8.384,34.521 -4.077,11.145 -9.408,21.825 -15.803,31.82 -6.401,9.991 -13.865,19.31 -22.269,27.695 -8.433,8.356 -17.76,15.805 -27.776,22.17 -10.02,6.35 -20.703,11.687 -31.882,15.672 -11.171,4.002 -22.776,6.778 -34.549,8.267 l -4.239,0.528 -4.259,0.323 c -1.421,0.096 -2.839,0.242 -4.262,0.3 z" /></g></g></g></g></svg>
