<svg id="visual" viewBox="0 0 900 600" width="900" height="600" xmlns="http://www.w3.org/2000/svg" xmlns:xlink="http://www.w3.org/1999/xlink" version="1.1"><path d="M0 509L16.7 515.3C33.3 521.7 66.7 534.3 100 545C133.3 555.7 166.7 564.3 200 569.7C233.3 575 266.7 577 300 576C333.3 575 366.7 571 400 561.2C433.3 551.3 466.7 535.7 500 530.3C533.3 525 566.7 530 600 533.8C633.3 537.7 666.7 540.3 700 538.2C733.3 536 766.7 529 800 521.5C833.3 514 866.7 506 883.3 502L900 498L900 601L883.3 601C866.7 601 833.3 601 800 601C766.7 601 733.3 601 700 601C666.7 601 633.3 601 600 601C566.7 601 533.3 601 500 601C466.7 601 433.3 601 400 601C366.7 601 333.3 601 300 601C266.7 601 233.3 601 200 601C166.7 601 133.3 601 100 601C66.7 601 33.3 601 16.7 601L0 601Z" fill="#ffffff" stroke-linecap="round" stroke-linejoin="miter"></path></svg>